<svg xmlns="http://www.w3.org/2000/svg" xmlns:xlink="http://www.w3.org/1999/xlink" version="1.1" width="24" height="24" viewBox="0 0 256 256" xml:space="preserve" fill="#fff">

<defs>
</defs>
<g style="stroke: none; stroke-width: 0; stroke-dasharray: none; stroke-linecap: butt; stroke-linejoin: miter; stroke-miterlimit: 10; opacity: 1;" transform="translate(1.4065934065934016 1.4065934065934016) scale(2.81 2.81)" >
	<path d="M 89 46 H 78.63 c -0.553 0 -1 -0.448 -1 -1 s 0.447 -1 1 -1 H 89 c 0.553 0 1 0.448 1 1 S 89.553 46 89 46 z" style="stroke: none; stroke-width: 1; stroke-dasharray: none; stroke-linecap: butt; stroke-linejoin: miter; stroke-miterlimit: 10; opacity: 1;" transform=" matrix(1 0 0 1 0 0) " stroke-linecap="round" />
	<path d="M 11.37 46 H 1 c -0.552 0 -1 -0.448 -1 -1 s 0.448 -1 1 -1 h 10.37 c 0.552 0 1 0.448 1 1 S 11.922 46 11.37 46 z" style="stroke: none; stroke-width: 1; stroke-dasharray: none; stroke-linecap: butt; stroke-linejoin: miter; stroke-miterlimit: 10; opacity: 1;" transform=" matrix(1 0 0 1 0 0) " stroke-linecap="round" />
	<path d="M 45 12.37 c -0.552 0 -1 -0.448 -1 -1 V 1 c 0 -0.552 0.448 -1 1 -1 s 1 0.448 1 1 v 10.37 C 46 11.922 45.552 12.37 45 12.37 z" style="stroke: none; stroke-width: 1; stroke-dasharray: none; stroke-linecap: butt; stroke-linejoin: miter; stroke-miterlimit: 10; opacity: 1;" transform=" matrix(1 0 0 1 0 0) " stroke-linecap="round" />
	<path d="M 45 90 c -0.552 0 -1 -0.447 -1 -1 V 78.63 c 0 -0.553 0.448 -1 1 -1 s 1 0.447 1 1 V 89 C 46 89.553 45.552 90 45 90 z" style="stroke: none; stroke-width: 1; stroke-dasharray: none; stroke-linecap: butt; stroke-linejoin: miter; stroke-miterlimit: 10; nonzero; opacity: 1;" transform=" matrix(1 0 0 1 0 0) " stroke-linecap="round" />
	<path d="M 76.112 77.112 c -0.256 0 -0.512 -0.098 -0.707 -0.293 l -7.332 -7.332 c -0.391 -0.391 -0.391 -1.023 0 -1.414 s 1.023 -0.391 1.414 0 l 7.332 7.332 c 0.391 0.391 0.391 1.023 0 1.414 C 76.624 77.015 76.368 77.112 76.112 77.112 z" style="stroke: none; stroke-width: 1; stroke-dasharray: none; stroke-linecap: butt; stroke-linejoin: miter; stroke-miterlimit: 10; opacity: 1;" transform=" matrix(1 0 0 1 0 0) " stroke-linecap="round" />
	<path d="M 21.22 22.22 c -0.256 0 -0.512 -0.098 -0.707 -0.293 l -7.333 -7.333 c -0.391 -0.391 -0.391 -1.023 0 -1.414 s 1.023 -0.391 1.414 0 l 7.333 7.333 c 0.391 0.391 0.391 1.023 0 1.414 C 21.731 22.122 21.476 22.22 21.22 22.22 z" style="stroke: none; stroke-width: 1; stroke-dasharray: none; stroke-linecap: butt; stroke-linejoin: miter; stroke-miterlimit: 10; opacity: 1;" transform=" matrix(1 0 0 1 0 0) " stroke-linecap="round" />
	<path d="M 68.78 22.22 c -0.256 0 -0.512 -0.098 -0.707 -0.293 c -0.391 -0.391 -0.391 -1.023 0 -1.414 l 7.332 -7.333 c 0.391 -0.391 1.023 -0.391 1.414 0 s 0.391 1.023 0 1.414 l -7.332 7.333 C 69.292 22.122 69.036 22.22 68.78 22.22 z" style="stroke: none; stroke-width: 1; stroke-dasharray: none; stroke-linecap: butt; stroke-linejoin: miter; stroke-miterlimit: 10; opacity: 1;" transform=" matrix(1 0 0 1 0 0) " stroke-linecap="round" />
	<path d="M 13.887 77.112 c -0.256 0 -0.512 -0.098 -0.707 -0.293 c -0.391 -0.391 -0.391 -1.023 0 -1.414 l 7.333 -7.332 c 0.391 -0.391 1.023 -0.391 1.414 0 s 0.391 1.023 0 1.414 l -7.333 7.332 C 14.399 77.015 14.143 77.112 13.887 77.112 z" style="stroke: none; stroke-width: 1; stroke-dasharray: none; stroke-linecap: butt; stroke-linejoin: miter; stroke-miterlimit: 10; opacity: 1;" transform=" matrix(1 0 0 1 0 0) " stroke-linecap="round" />
	<path d="M 45 65.478 c -11.292 0 -20.478 -9.187 -20.478 -20.478 c 0 -11.292 9.186 -20.478 20.478 -20.478 c 11.291 0 20.478 9.186 20.478 20.478 C 65.478 56.291 56.291 65.478 45 65.478 z M 45 26.522 c -10.188 0 -18.478 8.289 -18.478 18.478 S 34.812 63.478 45 63.478 S 63.478 55.188 63.478 45 S 55.188 26.522 45 26.522 z" style="stroke: none; stroke-width: 1; stroke-dasharray: none; stroke-linecap: butt; stroke-linejoin: miter; stroke-miterlimit: 10; opacity: 1;" transform=" matrix(1 0 0 1 0 0) " stroke-linecap="round" />
</g>
</svg>